# xmcd CD database file
#
# Track frame offsets:
#	187
#	24674
#	51299
#	67724
#	100649
#	103874
#	120002
#	150149
#	172349
#	191099
#	194252
#
# Disc length: 2962 seconds
#
# Revision: 5
# Processed by: cddbd v1.5.1PL0 Copyright (c) Steve Scherf et al.
# Submitted via: CD2WAV32(JP) R3.22
#
DISCID=840b900b
DTITLE=Bill Evans Trio - Everybody Digs Bill Evans
DYEAR=1958
DGENRE=Jazz
TTITLE0=Minority
TTITLE1=Young and Foolish
TTITLE2=Lucky To Be Me
TTITLE3=Night and Day
TTITLE4=Epilogue
TTITLE5=Tenderly
TTITLE6=Peace Piece
TTITLE7=What is there to Say
TTITLE8=Oleo
TTITLE9=Epilogue
TTITLE10=Some Other Time
EXTD=
EXTT0=
EXTT1=
EXTT2=
EXTT3=
EXTT4=
EXTT5=
EXTT6=
EXTT7=
EXTT8=
EXTT9=
EXTT10=
PLAYORDER=
